<?xml version="1.0" standalone="no"?>
<!DOCTYPE svg PUBLIC "-//W3C//DTD SVG 20010904//EN"
 "http://www.w3.org/TR/2001/REC-SVG-20010904/DTD/svg10.dtd">
<svg version="1.0" xmlns="http://www.w3.org/2000/svg"
 width="577.000000pt" height="433.000000pt" viewBox="0 0 577.000000 433.000000"
 preserveAspectRatio="xMidYMid meet">

<g transform="translate(0.000000,433.000000) scale(0.100000,-0.100000)"
fill="#000000" stroke="none">
<path d="M430 2165 l0 -1546 838 3 c932 4 916 3 1134 75 242 80 416 219 518
413 70 136 85 209 84 410 0 162 -2 182 -28 265 -15 50 -44 121 -64 159 -76
141 -226 268 -384 323 -43 16 -78 31 -78 35 0 4 21 19 48 32 74 37 169 113
222 177 99 119 142 254 141 446 0 238 -55 387 -191 524 -113 113 -280 182
-520 214 -84 12 -269 15 -912 15 l-808 0 0 -1545z m1503 1010 c209 -44 315
-205 278 -421 -27 -152 -109 -238 -268 -279 -77 -20 -839 -22 -844 -2 -2 6 -3
171 -1 365 l3 352 382 0 c293 0 398 -4 450 -15z m69 -1186 c89 -18 191 -73
241 -129 74 -82 91 -139 92 -300 0 -120 -3 -141 -23 -184 -36 -79 -84 -129
-159 -168 -118 -62 -132 -63 -616 -63 l-439 0 1 415 c1 228 1 421 1 428 0 16
822 18 902 1z"/>
<path d="M3630 3385 l0 -165 620 0 620 0 0 165 0 165 -620 0 -620 0 0 -165z"/>
<path d="M4032 2954 c-402 -73 -721 -351 -851 -740 -45 -136 -61 -247 -61
-432 0 -236 33 -386 125 -579 164 -338 467 -536 883 -575 372 -35 728 77 928
293 80 88 168 237 220 377 l24 62 -264 0 -263 0 -34 -57 c-84 -142 -268 -233
-469 -233 -330 0 -514 171 -546 508 l-7 72 813 0 813 0 -6 173 c-4 133 -11
196 -30 277 -112 472 -414 781 -839 855 -102 18 -336 18 -436 -1z m346 -449
c118 -28 195 -84 256 -184 38 -62 96 -223 96 -265 l0 -26 -506 0 -506 0 7 52
c29 212 162 369 355 420 81 21 215 22 298 3z"/>
</g>
</svg>
