<svg version="1.1" id="Layer_1" xmlns="http://www.w3.org/2000/svg" xmlns:xlink="http://www.w3.org/1999/xlink" x="0px" y="0px"
	 width="100%" viewBox="0 0 2048 2048" enable-background="new 0 0 2048 2048" xml:space="preserve">
<path fill="#007EBB" opacity="1.000000" stroke="none" 
	d="
M0.999986,1852.000000 
	C1.000000,1300.965088 1.000000,749.930176 1.400616,198.616699 
	C2.222708,196.332184 2.672973,194.331818 3.061284,192.319489 
	C7.861361,167.443924 15.114262,143.475311 27.342115,121.057716 
	C40.672752,96.618355 57.539410,75.255280 78.472221,56.857510 
	C97.932228,39.754177 119.641846,26.586082 143.541534,16.863934 
	C160.625992,9.914150 178.265900,5.043940 196.632156,2.917737 
	C197.484024,2.819119 198.213516,1.663392 199.000000,0.999999 
	C749.368225,1.000000 1299.736450,1.000000 1850.404297,1.408603 
	C1853.045044,2.235795 1855.391235,2.627434 1857.726196,3.077134 
	C1882.602905,7.868083 1906.499512,15.262149 1928.996582,27.336369 
	C1955.242188,41.422451 1977.769531,59.884319 1996.867676,82.519173 
	C2012.520508,101.070641 2024.717896,121.851349 2033.613159,144.453629 
	C2040.291870,161.424011 2045.217651,178.896774 2047.093262,197.132492 
	C2047.163208,197.813156 2048.339355,198.380051 2049.000000,198.999985 
	C2049.000000,749.368225 2049.000000,1299.736450 2048.591309,1850.404419 
	C2047.798462,1851.379883 2047.215210,1852.012817 2047.059570,1852.737549 
	C2044.450928,1864.881714 2042.573730,1877.230225 2039.186035,1889.150146 
	C2032.311401,1913.338989 2020.572266,1935.235229 2005.920898,1955.642456 
	C1994.747314,1971.205811 1981.764526,1985.102295 1967.047363,1997.238403 
	C1950.275146,2011.068848 1931.841797,2022.426147 1911.810059,2031.026245 
	C1893.073975,2039.070190 1873.653564,2044.661133 1853.357544,2047.081665 
	C1852.507568,2047.182983 1851.783081,2048.336670 1851.000000,2049.000000 
	C1300.631714,2049.000000 750.263489,2049.000000 199.601379,2048.595703 
	C196.365219,2047.472290 193.458267,2046.515991 190.475113,2046.072021 
	C166.746582,2042.539917 144.449219,2034.847290 123.227768,2023.706299 
	C97.697281,2010.302979 75.483337,1992.904053 56.467182,1971.148682 
	C43.485035,1956.296143 32.807693,1940.028564 24.010014,1922.526978 
	C13.119727,1900.862671 5.936158,1877.961426 2.908087,1853.822998 
	C2.823195,1853.146118 1.660234,1852.604614 0.999986,1852.000000 
M1229.560303,1034.992432 
	C1261.835083,1025.147339 1294.731934,1023.252502 1327.925293,1028.386475 
	C1357.622925,1032.979858 1383.914185,1045.071899 1405.418213,1066.593994 
	C1426.964355,1088.158447 1439.701172,1114.616455 1448.001953,1143.486816 
	C1458.130371,1178.712646 1460.699219,1214.866577 1460.706665,1251.287720 
	C1460.741211,1420.117432 1460.722046,1588.947266 1460.722046,1757.776978 
	C1460.722046,1759.883057 1460.721924,1761.989258 1460.721924,1764.232422 
	C1562.267212,1764.232422 1663.169678,1764.232422 1764.598022,1764.232422 
	C1764.598022,1761.613770 1764.597900,1759.321777 1764.597900,1757.029785 
	C1764.597900,1554.700806 1764.772583,1352.371338 1764.397461,1150.043091 
	C1764.345093,1121.777344 1762.593140,1093.419067 1759.853882,1065.276367 
	C1755.786865,1023.493774 1745.451904,983.048218 1728.833374,944.394287 
	C1694.660400,864.909363 1638.288330,807.761353 1557.609131,775.396790 
	C1520.059326,760.333618 1480.867065,752.529663 1440.587646,749.630310 
	C1400.122559,746.717712 1359.966675,748.391418 1320.465576,758.113831 
	C1232.855225,779.677124 1164.100586,828.387878 1113.468872,902.907959 
	C1112.020752,905.039368 1110.657593,907.228516 1109.254761,909.390747 
	C1108.947266,909.301208 1108.639893,909.211670 1108.332520,909.122131 
	C1108.332520,865.749329 1108.332520,822.376526 1108.332520,778.885315 
	C1010.434814,778.885315 913.073120,778.885315 815.778564,778.885315 
	C815.778564,1107.584106 815.778564,1435.831909 815.778564,1764.244629 
	C913.368347,1764.244629 1010.607239,1764.244629 1108.264893,1764.244629 
	C1108.264893,1761.781982 1108.264893,1759.637695 1108.264893,1757.493286 
	C1108.264893,1588.496948 1108.254028,1419.500488 1108.273926,1250.504150 
	C1108.278076,1215.540405 1111.381714,1180.951050 1122.211792,1147.475708 
	C1139.805176,1093.095215 1173.025269,1053.418091 1229.560303,1034.992432 
M620.140564,1693.500000 
	C620.140564,1388.619263 620.140564,1083.738525 620.140564,778.746887 
	C518.052551,778.746887 416.642914,778.746887 315.220520,778.746887 
	C315.220520,1107.420166 315.220520,1435.781860 315.220520,1764.251221 
	C416.963593,1764.251221 518.372070,1764.251221 620.140564,1764.251221 
	C620.140564,1740.793213 620.140564,1717.646606 620.140564,1693.500000 
M304.935883,549.583557 
	C306.843109,553.088623 308.672028,556.638916 310.669098,560.092041 
	C353.204132,633.638367 444.491577,667.698364 524.112061,639.748474 
	C612.326416,608.781677 662.267944,518.560364 642.014709,426.752716 
	C619.429138,324.372986 513.191101,262.486450 413.049774,293.374481 
	C306.513367,326.235016 254.443008,448.935211 304.935883,549.583557 
z"/>
<path fill="#000000" opacity="1.000000" stroke="none" 
	d="
M0.999986,1852.468628 
	C1.660234,1852.604614 2.823195,1853.146118 2.908087,1853.822998 
	C5.936158,1877.961426 13.119727,1900.862671 24.010014,1922.526978 
	C32.807693,1940.028564 43.485035,1956.296143 56.467182,1971.148682 
	C75.483337,1992.904053 97.697281,2010.302979 123.227768,2023.706299 
	C144.449219,2034.847290 166.746582,2042.539917 190.475113,2046.072021 
	C193.458267,2046.515991 196.365219,2047.472290 199.153748,2048.595703 
	C133.073151,2049.000000 67.146309,2049.000000 1.000000,2049.000000 
	C1.000000,1983.645874 1.000000,1918.291626 0.999986,1852.468628 
z"/>
<path fill="#000000" opacity="1.000000" stroke="none" 
	d="
M1851.468750,2049.000000 
	C1851.783081,2048.336670 1852.507568,2047.182983 1853.357544,2047.081665 
	C1873.653564,2044.661133 1893.073975,2039.070190 1911.810059,2031.026245 
	C1931.841797,2022.426147 1950.275146,2011.068848 1967.047363,1997.238403 
	C1981.764526,1985.102295 1994.747314,1971.205811 2005.920898,1955.642456 
	C2020.572266,1935.235229 2032.311401,1913.338989 2039.186035,1889.150146 
	C2042.573730,1877.230225 2044.450928,1864.881714 2047.059570,1852.737549 
	C2047.215210,1852.012817 2047.798462,1851.379883 2048.591309,1850.852051 
	C2049.000000,1916.927002 2049.000000,1982.854004 2049.000000,2049.000000 
	C1983.312622,2049.000000 1917.624878,2049.000000 1851.468750,2049.000000 
z"/>
<path fill="#000000" opacity="1.000000" stroke="none" 
	d="
M198.531342,0.999999 
	C198.213516,1.663392 197.484024,2.819119 196.632156,2.917737 
	C178.265900,5.043940 160.625992,9.914150 143.541534,16.863934 
	C119.641846,26.586082 97.932228,39.754177 78.472221,56.857510 
	C57.539410,75.255280 40.672752,96.618355 27.342115,121.057716 
	C15.114262,143.475311 7.861361,167.443924 3.061284,192.319489 
	C2.672973,194.331818 2.222708,196.332184 1.400616,198.169067 
	C1.000000,132.406113 1.000000,66.812241 1.000000,1.000000 
	C66.687401,1.000000 132.375046,1.000000 198.531342,0.999999 
z"/>
<path fill="#000000" opacity="1.000000" stroke="none" 
	d="
M2049.000000,198.531326 
	C2048.339355,198.380051 2047.163208,197.813156 2047.093262,197.132492 
	C2045.217651,178.896774 2040.291870,161.424011 2033.613159,144.453629 
	C2024.717896,121.851349 2012.520508,101.070641 1996.867676,82.519173 
	C1977.769531,59.884319 1955.242188,41.422451 1928.996582,27.336369 
	C1906.499512,15.262149 1882.602905,7.868083 1857.726196,3.077134 
	C1855.391235,2.627434 1853.045044,2.235795 1850.852051,1.408603 
	C1916.927002,1.000000 1982.854004,1.000000 2049.000000,1.000000 
	C2049.000000,66.687401 2049.000000,132.375046 2049.000000,198.531326 
z"/>
<path fill="#FEFFFF" opacity="1.000000" stroke="none" 
	d="
M1229.175537,1035.102173 
	C1173.025269,1053.418091 1139.805176,1093.095215 1122.211792,1147.475708 
	C1111.381714,1180.951050 1108.278076,1215.540405 1108.273926,1250.504150 
	C1108.254028,1419.500488 1108.264893,1588.496948 1108.264893,1757.493286 
	C1108.264893,1759.637695 1108.264893,1761.781982 1108.264893,1764.244629 
	C1010.607239,1764.244629 913.368347,1764.244629 815.778564,1764.244629 
	C815.778564,1435.831909 815.778564,1107.584106 815.778564,778.885315 
	C913.073120,778.885315 1010.434814,778.885315 1108.332520,778.885315 
	C1108.332520,822.376526 1108.332520,865.749329 1108.332520,909.122131 
	C1108.639893,909.211670 1108.947266,909.301208 1109.254761,909.390747 
	C1110.657593,907.228516 1112.020752,905.039368 1113.468872,902.907959 
	C1164.100586,828.387878 1232.855225,779.677124 1320.465576,758.113831 
	C1359.966675,748.391418 1400.122559,746.717712 1440.587646,749.630310 
	C1480.867065,752.529663 1520.059326,760.333618 1557.609131,775.396790 
	C1638.288330,807.761353 1694.660400,864.909363 1728.833374,944.394287 
	C1745.451904,983.048218 1755.786865,1023.493774 1759.853882,1065.276367 
	C1762.593140,1093.419067 1764.345093,1121.777344 1764.397461,1150.043091 
	C1764.772583,1352.371338 1764.597900,1554.700806 1764.597900,1757.029785 
	C1764.597900,1759.321777 1764.598022,1761.613770 1764.598022,1764.232422 
	C1663.169678,1764.232422 1562.267212,1764.232422 1460.721924,1764.232422 
	C1460.721924,1761.989258 1460.722046,1759.883057 1460.722046,1757.776978 
	C1460.722046,1588.947266 1460.741211,1420.117432 1460.706665,1251.287720 
	C1460.699219,1214.866577 1458.130371,1178.712646 1448.001953,1143.486816 
	C1439.701172,1114.616455 1426.964355,1088.158447 1405.418213,1066.593994 
	C1383.914185,1045.071899 1357.622925,1032.979858 1327.925293,1028.386475 
	C1294.731934,1023.252502 1261.835083,1025.147339 1229.175537,1035.102173 
z"/>
<path fill="#FFFFFF" opacity="1.000000" stroke="none" 
	d="
M620.140564,1694.000000 
	C620.140564,1717.646606 620.140564,1740.793213 620.140564,1764.251221 
	C518.372070,1764.251221 416.963593,1764.251221 315.220520,1764.251221 
	C315.220520,1435.781860 315.220520,1107.420166 315.220520,778.746887 
	C416.642914,778.746887 518.052551,778.746887 620.140564,778.746887 
	C620.140564,1083.738525 620.140564,1388.619263 620.140564,1694.000000 
z"/>
<path fill="#FFFFFF" opacity="1.000000" stroke="none" 
	d="
M304.771423,549.247925 
	C254.443008,448.935211 306.513367,326.235016 413.049774,293.374481 
	C513.191101,262.486450 619.429138,324.372986 642.014709,426.752716 
	C662.267944,518.560364 612.326416,608.781677 524.112061,639.748474 
	C444.491577,667.698364 353.204132,633.638367 310.669098,560.092041 
	C308.672028,556.638916 306.843109,553.088623 304.771423,549.247925 
z"/>
</svg>